<svg width="222" height="20" viewBox="0 0 222 20" fill="none" xmlns="http://www.w3.org/2000/svg">
<path d="M222 10C222 15.5228 217.523 20 212 20C206.477 20 202 15.5228 202 10C202 4.47715 206.477 0 212 0C217.523 0 222 4.47715 222 10Z" fill="#FF0000"/>
<path d="M217 10L209.5 14.3301V5.66987L217 10Z" fill="white"/>
<path d="M1.41 16V5.5H3.015L9.6 13.585H8.805V5.5H10.74V16H9.135L2.55 7.915H3.345V16H1.41ZM17.1386 16.105C16.2486 16.105 15.4686 15.93 14.7986 15.58C14.1386 15.22 13.6236 14.73 13.2536 14.11C12.8936 13.49 12.7136 12.785 12.7136 11.995C12.7136 11.195 12.8886 10.49 13.2386 9.88C13.5986 9.26 14.0886 8.775 14.7086 8.425C15.3386 8.075 16.0536 7.9 16.8536 7.9C17.6336 7.9 18.3286 8.07 18.9386 8.41C19.5486 8.75 20.0286 9.23 20.3786 9.85C20.7286 10.47 20.9036 11.2 20.9036 12.04C20.9036 12.12 20.8986 12.21 20.8886 12.31C20.8886 12.41 20.8836 12.505 20.8736 12.595H14.1986V11.35H19.8836L19.1486 11.74C19.1586 11.28 19.0636 10.875 18.8636 10.525C18.6636 10.175 18.3886 9.9 18.0386 9.7C17.6986 9.5 17.3036 9.4 16.8536 9.4C16.3936 9.4 15.9886 9.5 15.6386 9.7C15.2986 9.9 15.0286 10.18 14.8286 10.54C14.6386 10.89 14.5436 11.305 14.5436 11.785V12.085C14.5436 12.565 14.6536 12.99 14.8736 13.36C15.0936 13.73 15.4036 14.015 15.8036 14.215C16.2036 14.415 16.6636 14.515 17.1836 14.515C17.6336 14.515 18.0386 14.445 18.3986 14.305C18.7586 14.165 19.0786 13.945 19.3586 13.645L20.3636 14.8C20.0036 15.22 19.5486 15.545 18.9986 15.775C18.4586 15.995 17.8386 16.105 17.1386 16.105ZM21.3899 16L24.9149 11.41L24.8849 12.415L21.5249 7.99H23.6099L25.9649 11.14H25.1699L27.5399 7.99H29.5649L26.1749 12.415L26.1899 11.41L29.6999 16H27.5849L25.1099 12.655L25.8899 12.76L23.4599 16H21.3899ZM34.0985 16.105C33.2185 16.105 32.5385 15.88 32.0585 15.43C31.5785 14.97 31.3385 14.295 31.3385 13.405V6.22H33.2135V13.36C33.2135 13.74 33.3085 14.035 33.4985 14.245C33.6985 14.455 33.9735 14.56 34.3235 14.56C34.7435 14.56 35.0935 14.45 35.3735 14.23L35.8985 15.565C35.6785 15.745 35.4085 15.88 35.0885 15.97C34.7685 16.06 34.4385 16.105 34.0985 16.105ZM30.0185 9.55V8.05H35.3585V9.55H30.0185ZM38.1874 16.105C37.8474 16.105 37.5574 15.99 37.3174 15.76C37.0774 15.52 36.9574 15.22 36.9574 14.86C36.9574 14.48 37.0774 14.18 37.3174 13.96C37.5574 13.73 37.8474 13.615 38.1874 13.615C38.5274 13.615 38.8174 13.73 39.0574 13.96C39.2974 14.18 39.4174 14.48 39.4174 14.86C39.4174 15.22 39.2974 15.52 39.0574 15.76C38.8174 15.99 38.5274 16.105 38.1874 16.105ZM40.571 19.015C40.221 19.015 39.891 18.975 39.581 18.895C39.261 18.825 38.991 18.71 38.771 18.55L39.311 17.155C39.601 17.365 39.966 17.47 40.406 17.47C40.746 17.47 41.011 17.36 41.201 17.14C41.391 16.93 41.486 16.615 41.486 16.195V7.99H43.361V16.15C43.361 17.03 43.116 17.725 42.626 18.235C42.146 18.755 41.461 19.015 40.571 19.015ZM42.416 6.67C42.066 6.67 41.776 6.56 41.546 6.34C41.326 6.12 41.216 5.855 41.216 5.545C41.216 5.225 41.326 4.96 41.546 4.75C41.776 4.53 42.066 4.42 42.416 4.42C42.766 4.42 43.051 4.525 43.271 4.735C43.501 4.935 43.616 5.19 43.616 5.5C43.616 5.83 43.506 6.11 43.286 6.34C43.066 6.56 42.776 6.67 42.416 6.67ZM48.2948 16.105C47.6248 16.105 46.9798 16.02 46.3598 15.85C45.7498 15.67 45.2648 15.455 44.9048 15.205L45.6248 13.78C45.9848 14.01 46.4148 14.2 46.9148 14.35C47.4148 14.5 47.9148 14.575 48.4148 14.575C49.0048 14.575 49.4298 14.495 49.6898 14.335C49.9598 14.175 50.0948 13.96 50.0948 13.69C50.0948 13.47 50.0048 13.305 49.8248 13.195C49.6448 13.075 49.4098 12.985 49.1198 12.925C48.8298 12.865 48.5048 12.81 48.1448 12.76C47.7948 12.71 47.4398 12.645 47.0798 12.565C46.7298 12.475 46.4098 12.35 46.1198 12.19C45.8298 12.02 45.5948 11.795 45.4148 11.515C45.2348 11.235 45.1448 10.865 45.1448 10.405C45.1448 9.895 45.2898 9.455 45.5798 9.085C45.8698 8.705 46.2748 8.415 46.7948 8.215C47.3248 8.005 47.9498 7.9 48.6698 7.9C49.2098 7.9 49.7548 7.96 50.3048 8.08C50.8548 8.2 51.3098 8.37 51.6698 8.59L50.9498 10.015C50.5698 9.785 50.1848 9.63 49.7948 9.55C49.4148 9.46 49.0348 9.415 48.6548 9.415C48.0848 9.415 47.6598 9.5 47.3798 9.67C47.1098 9.84 46.9748 10.055 46.9748 10.315C46.9748 10.555 47.0648 10.735 47.2448 10.855C47.4248 10.975 47.6598 11.07 47.9498 11.14C48.2398 11.21 48.5598 11.27 48.9098 11.32C49.2698 11.36 49.6248 11.425 49.9748 11.515C50.3248 11.605 50.6448 11.73 50.9348 11.89C51.2348 12.04 51.4748 12.255 51.6548 12.535C51.8348 12.815 51.9248 13.18 51.9248 13.63C51.9248 14.13 51.7748 14.565 51.4748 14.935C51.1848 15.305 50.7698 15.595 50.2298 15.805C49.6898 16.005 49.0448 16.105 48.2948 16.105ZM52.9096 9.67V11.125H65.4946V9.67H52.9096ZM54.3196 11.815V13.165H62.0296V13.855H54.3496V16.3H56.3296V15.115H63.9946V11.815H54.3196ZM54.3496 15.88V17.23H64.3846V15.88H54.3496ZM54.4546 3.685V5.02H61.9996V5.71H54.4696V8.095H56.4496V6.955H63.9646V3.685H54.4546ZM54.4696 7.675V9.025H64.2196V7.675H54.4696ZM80.3789 3.43V17.365H82.3889V3.43H80.3789ZM74.9039 4.405C72.8039 4.405 71.2589 6.325 71.2589 9.355C71.2589 12.415 72.8039 14.335 74.9039 14.335C77.0039 14.335 78.5489 12.415 78.5489 9.355C78.5489 6.325 77.0039 4.405 74.9039 4.405ZM74.9039 6.22C75.9389 6.22 76.6289 7.315 76.6289 9.355C76.6289 11.425 75.9389 12.535 74.9039 12.535C73.8689 12.535 73.1639 11.425 73.1639 9.355C73.1639 7.315 73.8689 6.22 74.9039 6.22ZM87.4727 8.095V10.645H89.4677V8.095H87.4727ZM92.3627 8.095V10.645H94.3427V8.095H92.3627ZM84.6527 10.03V11.605H97.2077V10.03H84.6527ZM90.9077 12.31C87.8927 12.31 86.0777 13.21 86.0777 14.815C86.0777 16.435 87.8927 17.335 90.9077 17.335C93.9077 17.335 95.7227 16.435 95.7227 14.815C95.7227 13.21 93.9077 12.31 90.9077 12.31ZM90.9077 13.81C92.7677 13.81 93.7127 14.125 93.7127 14.815C93.7127 15.52 92.7677 15.835 90.9077 15.835C89.0477 15.835 88.1027 15.52 88.1027 14.815C88.1027 14.125 89.0477 13.81 90.9077 13.81ZM90.9377 3.64C87.8627 3.64 85.9127 4.66 85.9127 6.325C85.9127 7.975 87.8627 8.965 90.9377 8.965C93.9977 8.965 95.9627 7.975 95.9627 6.325C95.9627 4.66 93.9977 3.64 90.9377 3.64ZM90.9377 5.17C92.8427 5.17 93.9077 5.545 93.9077 6.325C93.9077 7.09 92.8427 7.465 90.9377 7.465C89.0327 7.465 87.9677 7.09 87.9677 6.325C87.9677 5.545 89.0327 5.17 90.9377 5.17ZM107.392 3.46V13.84H109.387V3.46H107.392ZM108.817 7.69V9.325H111.232V7.69H108.817ZM98.4516 4.9V6.46H106.627V4.9H98.4516ZM102.547 6.955C100.537 6.955 99.1266 8.05 99.1266 9.64C99.1266 11.23 100.537 12.31 102.547 12.31C104.542 12.31 105.952 11.23 105.952 9.64C105.952 8.05 104.542 6.955 102.547 6.955ZM102.547 8.47C103.432 8.47 104.047 8.89 104.047 9.64C104.047 10.39 103.432 10.795 102.547 10.795C101.662 10.795 101.047 10.39 101.047 9.64C101.047 8.89 101.662 8.47 102.547 8.47ZM101.542 3.43V5.665H103.537V3.43H101.542ZM100.432 15.505V17.095H109.882V15.505H100.432ZM100.432 13.06V16.195H102.427V13.06H100.432ZM126.461 3.445V17.335H128.366V3.445H126.461ZM120.956 8.77V10.345H123.926V8.77H120.956ZM123.536 3.745V16.72H125.396V3.745H123.536ZM120.506 5.08V5.485C120.506 8.845 119.381 11.155 116.216 13.06L117.341 14.455C121.241 12.19 122.426 9.04 122.426 5.08H120.506ZM116.996 5.08V6.67H121.136V5.08H116.996ZM133.585 4.51V6.535C133.585 9.235 132.445 11.905 130.03 12.955L131.215 14.605C133.975 13.33 135.205 10.105 135.205 6.535V4.51H133.585ZM133.975 4.51V6.535C133.975 9.955 135.205 13.045 137.89 14.275L139.06 12.67C136.69 11.65 135.595 9.1 135.595 6.535V4.51H133.975ZM139.72 3.43V17.365H141.73V3.43H139.72ZM144.279 4.57V6.175H151.689V4.57H144.279ZM144.129 11.83C146.424 11.83 149.574 11.77 152.304 11.29L152.169 9.835C149.499 10.18 146.274 10.21 143.919 10.225L144.129 11.83ZM145.374 5.8V10.525H147.294V5.8H145.374ZM148.689 5.8V10.525H150.594V5.8H148.689ZM152.934 3.46V13.69H154.929V3.46H152.934ZM154.359 7.36V9.01H156.774V7.36H154.359ZM145.974 15.505V17.095H155.424V15.505H145.974ZM145.974 12.73V15.925H147.969V12.73H145.974ZM158.197 4.585V11.29H164.812V4.585H158.197ZM162.847 6.16V9.715H160.162V6.16H162.847ZM166.732 3.445V13.57H168.727V3.445H166.732ZM168.157 7.45V9.085H170.572V7.45H168.157ZM159.772 15.505V17.095H169.222V15.505H159.772ZM159.772 12.58V16.3H161.767V12.58H159.772ZM171.606 8.83V10.405H184.176V8.83H171.606ZM173.151 6.52V8.08H182.691V6.52H173.151ZM173.151 3.7V7.87H175.131V5.29H182.571V3.7H173.151ZM173.031 11.185V12.685H180.666V13.45H173.046V16.06H175.011V14.86H182.631V11.185H173.031ZM173.046 15.7V17.23H182.991V15.7H173.046ZM194.96 3.445V17.335H196.97V3.445H194.96ZM190.865 4.885V5.245C190.865 8.965 189.425 11.485 185.435 13.405L186.47 14.995C191.405 12.61 192.845 9.13 192.845 4.885H190.865ZM186.17 4.885V6.46H191.81V4.885H186.17Z" fill="black"/>
</svg>
